# xmcd
#
# Track frame offsets: 
#        150
#        20382
#        52905
#        68282
#        89717
#        118775
#        138990
#        159852
#        180932
#
# Disc length: 2941 seconds
#
# Revision: 0
# Processed by: cddbd v1.5.2PL0 Copyright (c) Steve Scherf et al.
# Submitted via: ExactAudioCopyFreeDBPlugin 1.0
#
DISCID=650b7b09
DTITLE=Semper Fi - Strong Weakness
DYEAR=2000
DGENRE=Metal
TTITLE0=Sense Of Justice
TTITLE1=Center Of Believes
TTITLE2=Strike
TTITLE3=Mouth To Man
TTITLE4=No Fear
TTITLE5=In My Head
TTITLE6=Crush
TTITLE7=Abused
TTITLE8=Strong Weakness
EXTD=
EXTT0=
EXTT1=
EXTT2=
EXTT3=
EXTT4=
EXTT5=
EXTT6=
EXTT7=
EXTT8=
PLAYORDER=
